<?xml version="1.0" standalone="no"?>
<!DOCTYPE svg PUBLIC "-//W3C//DTD SVG 20010904//EN"
 "http://www.w3.org/TR/2001/REC-SVG-20010904/DTD/svg10.dtd">
<svg version="1.0" xmlns="http://www.w3.org/2000/svg"
 width="192.000000pt" height="192.000000pt" viewBox="0 0 192.000000 192.000000"
 preserveAspectRatio="xMidYMid meet">
<metadata>
Created by potrace 1.11, written by Peter Selinger 2001-2013
</metadata>
<g transform="translate(0.000000,192.000000) scale(0.100000,-0.100000)"
fill="#000000" stroke="none">
<path d="M0 960 l0 -960 960 0 960 0 0 960 0 960 -960 0 -960 0 0 -960z m814
6 c80 -206 146 -377 146 -380 0 -3 -33 -6 -73 -6 l-73 0 -24 66 c-14 36 -30
70 -36 75 -7 5 -84 8 -179 7 l-168 -3 -26 -70 -27 -70 -78 -3 c-43 -2 -75 1
-72 6 4 6 222 560 287 730 8 20 15 22 92 22 l84 0 147 -374z m737 346 c39 -20
58 -38 76 -71 46 -87 19 -198 -59 -245 l-39 -23 38 -20 c93 -48 126 -185 67
-280 -51 -82 -72 -88 -341 -91 l-233 -3 0 380 0 381 219 0 219 0 53 -28z"/>
<path d="M570 1175 c-56 -146 -120 -319 -120 -326 0 -5 61 -9 135 -9 74 0 135
2 135 5 0 8 -121 328 -130 344 -7 13 -11 10 -20 -14z"/>
<path d="M1192 1128 l3 -103 126 0 c142 0 169 10 189 69 9 27 8 41 -4 71 -22
52 -61 65 -201 65 l-116 0 3 -102z"/>
<path d="M1190 801 l0 -111 123 0 c96 0 129 4 157 18 66 33 80 109 31 164
l-29 33 -141 3 -141 4 0 -111z"/>
</g>
</svg>
